<svg width="345" height="103" viewBox="0 0 345 103" fill="none" xmlns="http://www.w3.org/2000/svg">
<mask id="mask0_423_7999" style="mask-type:alpha" maskUnits="userSpaceOnUse" x="0" y="0" width="345" height="103">
<rect width="345" height="103" rx="21" fill="url(#paint0_linear_423_7999)"/>
</mask>
<g mask="url(#mask0_423_7999)">
<path d="M305.998 29.9928H309.39C311.528 29.9928 312.818 31.3562 312.818 33.6407V37.5097C312.818 39.7942 311.528 41.1576 309.39 41.1576H286.61C284.472 41.1576 283.182 39.7942 283.182 37.5097V33.6407C283.182 31.3562 284.472 29.9928 286.61 29.9928H290.001C290.259 25.8291 293.724 22.4391 298 22.4391C302.275 22.4391 305.74 25.8291 305.998 29.9928ZM294.793 30.2876C294.793 32.0195 296.23 33.4933 298 33.4933C299.769 33.4933 301.207 32.0195 301.207 30.2876C301.207 28.4821 299.769 27.0451 298 27.0451C296.23 27.0451 294.793 28.4821 294.793 30.2876Z" fill="#FDF6EC"/>
<path d="M278.92 32.6827C278.885 32.9934 278.869 33.3137 278.869 33.6407V37.5098C278.869 42.1524 282.113 45.4317 286.61 45.4317H309.39C313.887 45.4317 317.13 42.1524 317.13 37.5098V33.6407C317.13 33.3137 317.115 32.9934 317.08 32.6827H317.572C325.202 32.6827 329 36.5151 329 44.253V100.149C329 107.887 325.202 111.72 317.572 111.72H278.427C270.797 111.72 267 107.887 267 100.149V44.253C267 36.5151 270.797 32.6827 278.427 32.6827H278.92ZM281.966 85.043C280.197 85.043 278.722 86.5533 278.722 88.2852C278.722 90.0537 280.197 91.5274 281.966 91.5274C283.735 91.5272 285.209 90.0905 285.209 88.2852C285.209 86.5165 283.735 85.0433 281.966 85.043ZM292.139 85.9268C290.775 85.927 289.706 86.9957 289.706 88.2852C289.706 89.5748 290.812 90.6805 292.139 90.6807H314.919C316.209 90.6807 317.278 89.5748 317.278 88.2852C317.278 86.9956 316.246 85.9269 314.919 85.9268H292.139ZM281.966 70.8565C280.16 70.8565 278.722 72.2937 278.722 74.0626C278.722 75.8309 280.16 77.3047 281.966 77.3047C283.735 77.3045 285.209 75.8308 285.209 74.0626C285.209 72.2569 283.735 70.8567 281.966 70.8565ZM292.139 71.7042C290.775 71.7043 289.706 72.736 289.706 74.0626C289.706 75.3886 290.775 76.4569 292.139 76.4571H314.919C316.246 76.457 317.278 75.3887 317.278 74.0626C317.278 72.736 316.246 71.7042 314.919 71.7042H292.139ZM285.298 55.879C284.072 55.8791 283.732 56.7597 283.295 57.6895C283.161 57.9751 283.016 58.2669 282.84 58.5342C282.615 58.8746 282.288 59.1428 281.96 59.4102C281.359 59.9025 280.733 60.4373 280.733 61.4766C280.733 62.7043 281.56 63.5792 282.773 63.5792C283.374 63.5791 283.811 63.4096 284.229 63.2637C284.569 63.1422 284.897 63.0323 285.298 63.0323C285.692 63.0323 286.02 63.1422 286.366 63.2637C286.785 63.4096 287.216 63.5792 287.817 63.5792C289.037 63.579 289.862 62.7043 289.862 61.4766C289.862 60.4313 289.238 59.9025 288.637 59.4102C288.303 59.1428 287.981 58.8872 287.763 58.5469C287.581 58.2735 287.428 57.9759 287.301 57.6964C286.864 56.7603 286.518 55.879 285.298 55.879ZM280.363 54.6446C279.544 54.6446 278.913 55.5744 278.913 56.7715C278.913 57.975 279.544 58.8995 280.363 58.8995C281.183 58.8995 281.82 57.975 281.82 56.7715C281.82 55.5744 281.183 54.6446 280.363 54.6446ZM290.232 54.6446C289.413 54.645 288.777 55.5746 288.776 56.7715C288.776 57.9748 289.413 58.8991 290.232 58.8995C291.052 58.8995 291.684 57.975 291.684 56.7715C291.683 55.5744 291.052 54.6446 290.232 54.6446ZM283.313 51.1378C282.5 51.1378 281.857 52.0614 281.856 53.2647C281.856 54.4621 282.5 55.3858 283.313 55.3858C284.139 55.3856 284.776 54.4559 284.776 53.2647C284.776 52.0615 284.139 51.1379 283.313 51.1378ZM287.283 51.1378C286.458 51.1378 285.826 52.0614 285.826 53.2647C285.826 54.456 286.458 55.3858 287.283 55.3858C288.096 55.3856 288.739 54.462 288.739 53.2647C288.739 52.0615 288.096 51.138 287.283 51.1378Z" fill="#FDF6EC"/>
</g>
<g clip-path="url(#clip0_423_7999)">
<path d="M248.287 45.5844C249.686 46.0756 251.022 45.7081 251.361 44.7416C251.7 43.7751 250.89 42.6462 249.491 42.155C248.1 41.6663 246.755 42.0385 246.415 43.005C246.076 43.9715 246.895 45.0957 248.287 45.5844ZM245.43 40.6807C246.822 41.1694 248.162 40.7876 248.499 39.8282C248.841 38.8545 248.024 37.7232 246.639 37.237C245.24 36.7458 243.902 37.1205 243.56 38.0941C243.223 39.0535 244.031 40.1895 245.43 40.6807ZM247.074 35.9985C248.459 36.4847 249.801 36.1196 250.143 35.146C250.48 34.1866 249.672 33.0507 248.281 32.562C246.882 32.0708 245.541 32.4525 245.204 33.4119C244.863 34.3856 245.675 35.5073 247.074 35.9985ZM252.372 33.9504C253.771 34.4416 255.109 34.067 255.448 33.1004C255.788 32.134 254.975 31.0122 253.576 30.521C252.185 30.0323 250.842 30.3974 250.503 31.3639C250.163 32.3304 250.98 33.4617 252.372 33.9504ZM254.51 45.3567C255.937 45.8578 257.296 45.2414 257.799 43.8095C258.048 43.1007 258.031 42.5158 258.035 41.9623C258.034 41.5117 258.043 41.0805 258.209 40.608C258.372 40.1426 258.635 39.8007 258.92 39.4422C259.263 39.0077 259.639 38.5688 259.888 37.8601C260.393 36.421 259.718 35.0901 258.291 34.589C257.075 34.1623 256.202 34.6839 255.381 35.1918C254.932 35.4764 254.502 35.7516 254.016 35.8704C253.622 35.9736 253.213 36.031 252.835 36.0672C251.566 36.2006 250.399 36.249 249.893 37.6881C249.385 39.1342 250.269 39.8949 251.169 40.7899C251.446 41.064 251.725 41.3549 251.963 41.6717C252.265 42.0755 252.44 42.5713 252.615 43.067C252.939 43.9768 253.302 44.9325 254.51 45.3567Z" fill="#2F4F44"/>
</g>
<g clip-path="url(#clip1_423_7999)">
<path d="M261.293 20.7144C261.805 22.1057 262.939 22.9011 263.9 22.5471C264.862 22.1932 265.216 20.8498 264.704 19.4585C264.194 18.0742 263.051 17.2744 262.089 17.6283C261.128 17.9823 260.783 19.3301 261.293 20.7144ZM263.254 15.3883C263.763 16.7725 264.911 17.5627 265.865 17.2114C266.834 16.8548 267.186 15.5044 266.679 14.1271C266.166 12.7358 265.025 11.943 264.057 12.2996C263.103 12.6509 262.741 13.9969 263.254 15.3883ZM267.91 13.6736C268.417 15.0508 269.554 15.8533 270.522 15.4967C271.476 15.1454 271.838 13.7994 271.328 12.4151C270.816 11.0238 269.668 10.2336 268.714 10.5849C267.745 10.9415 267.398 12.2823 267.91 13.6736ZM272.864 16.4539C273.376 17.8452 274.517 18.638 275.478 18.284C276.44 17.9301 276.787 16.5893 276.275 15.198C275.765 13.8137 274.628 13.0113 273.667 13.3652C272.706 13.7192 272.354 15.0696 272.864 16.4539ZM265.432 25.3666C265.954 26.7861 267.295 27.4413 268.72 26.9169C269.424 26.6574 269.865 26.2719 270.294 25.9223C270.641 25.635 270.979 25.3669 271.449 25.1939C271.912 25.0234 272.343 25.0084 272.8 24.9994C273.354 24.9872 273.932 24.9977 274.637 24.7382C276.068 24.2112 276.664 22.8428 276.141 21.4233C275.696 20.2147 274.738 19.8734 273.823 19.5638C273.318 19.3988 272.831 19.2427 272.43 18.9435C272.1 18.706 271.795 18.4272 271.527 18.159C270.616 17.2657 269.835 16.3962 268.403 16.9232C266.965 17.4528 266.942 18.6186 266.825 19.8824C266.79 20.2704 266.743 20.6706 266.65 21.0558C266.532 21.5463 266.261 21.9971 265.99 22.4478C265.495 23.2766 264.989 24.165 265.432 25.3666Z" fill="#2F4F44"/>
</g>
<defs>
<linearGradient id="paint0_linear_423_7999" x1="172.5" y1="0" x2="172.5" y2="103" gradientUnits="userSpaceOnUse">
<stop stop-color="#99D1BE"/>
<stop offset="1" stop-color="#7FB09F"/>
</linearGradient>
<clipPath id="clip0_423_7999">
<rect width="16.2457" height="15.3431" fill="white" transform="translate(241.738 43.2847) rotate(-70.6523)"/>
</clipPath>
<clipPath id="clip1_423_7999">
<rect width="16.2457" height="15.3431" fill="white" transform="translate(258.895 14.2004) rotate(-20.2142)"/>
</clipPath>
</defs>
</svg>
