<svg width="88" height="104" viewBox="0 0 88 104" fill="none" xmlns="http://www.w3.org/2000/svg">
<path d="M64.9983 21.9928H68.3897C70.5276 21.9928 71.8177 23.3561 71.8177 25.6407V29.5096C71.8177 31.7942 70.5276 33.1575 68.3897 33.1575H45.6097C43.4718 33.1575 42.1816 31.7942 42.1816 29.5096V25.6407C42.1816 23.3561 43.4718 21.9928 45.6097 21.9928H49.0009C49.2589 17.8291 52.7238 14.4391 56.9996 14.4391C61.2755 14.4391 64.7405 17.8291 64.9983 21.9928ZM53.7927 22.2876C53.7927 24.0194 55.2303 25.4933 56.9996 25.4933C58.7689 25.4933 60.2065 24.0194 60.2065 22.2876C60.2065 20.4821 58.7689 19.045 56.9996 19.045C55.2303 19.045 53.7927 20.4821 53.7927 22.2876Z" fill="#FDF6EC"/>
<path d="M37.9199 24.6827C37.8852 24.9934 37.8691 25.3137 37.8691 25.6407V29.5098C37.8693 34.1524 41.1135 37.4317 45.6104 37.4317H68.3896C72.8865 37.4317 76.1297 34.1524 76.1299 29.5098V25.6407C76.1299 25.3137 76.1152 24.9934 76.0801 24.6827H76.5723C84.2025 24.6827 88 28.5151 88 36.253V92.1495C88 99.8875 84.2025 103.72 76.5723 103.72H37.4268C29.7966 103.72 26 99.8875 26 92.1495V36.253C26 28.5151 29.7966 24.6827 37.4268 24.6827H37.9199ZM40.9658 77.043C39.1965 77.043 37.7217 78.5533 37.7217 80.2852C37.7217 82.0537 39.1965 83.5274 40.9658 83.5274C42.735 83.5272 44.209 82.0905 44.209 80.2852C44.209 78.5165 42.7349 77.0433 40.9658 77.043ZM51.1387 77.9268C49.775 77.927 48.7061 78.9957 48.7061 80.2852C48.7061 81.5748 49.8118 82.6805 51.1387 82.6807H73.9189C75.209 82.6807 76.2783 81.5748 76.2783 80.2852C76.2783 78.9956 75.246 77.9269 73.9189 77.9268H51.1387ZM40.9658 62.8565C39.1597 62.8565 37.7217 64.2937 37.7217 66.0626C37.7218 67.8309 39.1598 69.3047 40.9658 69.3047C42.7349 69.3045 44.2088 67.8308 44.209 66.0626C44.209 64.2569 42.735 62.8567 40.9658 62.8565ZM51.1387 63.7042C49.775 63.7043 48.7061 64.736 48.7061 66.0626C48.7062 67.3886 49.7751 68.4569 51.1387 68.4571H73.9189C75.2459 68.457 76.2782 67.3887 76.2783 66.0626C76.2783 64.736 75.246 63.7042 73.9189 63.7042H51.1387ZM44.2979 47.879C43.072 47.8791 42.7319 48.7597 42.2949 49.6895C42.1614 49.9751 42.0158 50.2669 41.8398 50.5342C41.6153 50.8746 41.2877 51.1428 40.96 51.4102C40.359 51.9025 39.7334 52.4373 39.7334 53.4766C39.7335 54.7043 40.5595 55.5792 41.7734 55.5792C42.374 55.5791 42.8109 55.4096 43.2295 55.2637C43.5693 55.1422 43.8974 55.0323 44.2979 55.0323C44.6924 55.0323 45.0202 55.1422 45.3662 55.2637C45.785 55.4096 46.2165 55.5792 46.8174 55.5792C48.0372 55.579 48.8622 54.7043 48.8623 53.4766C48.8623 52.4313 48.2376 51.9025 47.6367 51.4102C47.3029 51.1428 46.9812 50.8872 46.7627 50.5469C46.5806 50.2735 46.4282 49.9759 46.3008 49.6964C45.8638 48.7603 45.5179 47.879 44.2979 47.879ZM39.3633 46.6446C38.544 46.6446 37.9133 47.5744 37.9131 48.7715C37.9131 49.975 38.5439 50.8995 39.3633 50.8995C40.1827 50.8995 40.8203 49.975 40.8203 48.7715C40.8201 47.5744 40.1826 46.6446 39.3633 46.6446ZM49.2324 46.6446C48.4133 46.645 47.7765 47.5746 47.7764 48.7715C47.7764 49.9748 48.4132 50.8991 49.2324 50.8995C50.0518 50.8995 50.6836 49.975 50.6836 48.7715C50.6834 47.5744 50.0517 46.6446 49.2324 46.6446ZM42.3135 43.1378C41.5002 43.1378 40.8565 44.0614 40.8564 45.2647C40.8564 46.4621 41.5001 47.3858 42.3135 47.3858C43.1389 47.3856 43.7764 46.4559 43.7764 45.2647C43.7763 44.0615 43.1388 43.1379 42.3135 43.1378ZM46.2832 43.1378C45.4578 43.1378 44.8263 44.0614 44.8262 45.2647C44.8262 46.456 45.4577 47.3858 46.2832 47.3858C47.0964 47.3856 47.7393 46.462 47.7393 45.2647C47.7392 44.0615 47.0964 43.138 46.2832 43.1378Z" fill="#FDF6EC"/>
<g clip-path="url(#clip0_351_7883)">
<path d="M7.28724 37.5844C8.68613 38.0756 10.0215 37.7081 10.3609 36.7416C10.7002 35.7751 9.89027 34.6462 8.49138 34.155C7.09954 33.6663 5.75461 34.0385 5.41523 35.005C5.07586 35.9715 5.8954 37.0957 7.28724 37.5844ZM4.42984 32.6807C5.82169 33.1694 7.16207 32.7876 7.49893 31.8282C7.84081 30.8545 7.02379 29.7232 5.63901 29.237C4.2401 28.7458 2.90223 29.1205 2.56035 30.0941C2.22349 31.0535 3.03093 32.1895 4.42984 32.6807ZM6.0739 27.9985C7.45868 28.4847 8.80112 28.1196 9.143 27.146C9.47985 26.1866 8.6724 25.0507 7.28055 24.562C5.88165 24.0708 4.54128 24.4525 4.20442 25.4119C3.86254 26.3856 4.67499 27.5073 6.0739 27.9985ZM11.3723 25.9504C12.7712 26.4416 14.109 26.067 14.4484 25.1004C14.7878 24.134 13.9753 23.0122 12.5764 22.521C11.1846 22.0323 9.84214 22.3974 9.50279 23.3639C9.1634 24.3304 9.98042 25.4617 11.3723 25.9504ZM13.5099 37.3567C14.9371 37.8578 16.2963 37.2414 16.7991 35.8095C17.0479 35.1007 17.0311 34.5158 17.035 33.9623C17.0345 33.5117 17.0431 33.0805 17.209 32.608C17.3724 32.1426 17.6353 31.8007 17.9199 31.4422C18.2629 31.0077 18.6392 30.5688 18.8881 29.8601C19.3934 28.421 18.7179 27.0901 17.2907 26.589C16.0755 26.1623 15.2019 26.6839 14.3807 27.1918C13.9316 27.4764 13.5017 27.7516 13.0155 27.8704C12.6221 27.9736 12.2131 28.031 11.8353 28.0672C10.5663 28.2006 9.39852 28.249 8.89324 29.6881C8.38544 31.1342 9.26912 31.8949 10.1691 32.7899C10.4458 33.064 10.7247 33.3549 10.9626 33.6717C11.2652 34.0755 11.4404 34.5713 11.6155 35.067C11.9389 35.9768 12.3017 36.9325 13.5099 37.3567Z" fill="#2F4F44"/>
</g>
<g clip-path="url(#clip1_351_7883)">
<path d="M20.293 12.7144C20.8053 14.1057 21.9391 14.9011 22.9004 14.5471C23.8617 14.1932 24.216 12.8498 23.7038 11.4585C23.194 10.0742 22.0505 9.27438 21.0892 9.62833C20.128 9.98228 19.7833 11.3301 20.293 12.7144ZM22.2536 7.38825C22.7633 8.77255 23.9113 9.56272 24.8655 9.21139C25.8339 8.85482 26.1857 7.50441 25.6785 6.12714C25.1662 4.73582 24.0253 3.94303 23.0569 4.2996C22.1028 4.65093 21.7413 5.99693 22.2536 7.38825ZM26.9104 5.67358C27.4175 7.05084 28.5539 7.85326 29.5223 7.4967C30.4765 7.14537 30.8379 5.79938 30.3282 4.41509C29.8159 3.02377 28.6679 2.23358 27.7137 2.58491C26.7454 2.94147 26.3981 4.28226 26.9104 5.67358ZM31.8639 8.45386C32.3761 9.84517 33.5171 10.638 34.4784 10.284C35.4396 9.93008 35.7869 8.58928 35.2746 7.19798C34.7649 5.81369 33.6285 5.01127 32.6672 5.3652C31.7059 5.71916 31.3541 7.06957 31.8639 8.45386ZM24.4318 17.3666C24.9545 18.7861 26.2954 19.4413 27.7195 18.9169C28.4245 18.6574 28.8647 18.2719 29.2939 17.9223C29.6409 17.635 29.9788 17.3669 30.4488 17.1939C30.9116 17.0234 31.3427 17.0084 31.8003 16.9994C32.3537 16.9872 32.9318 16.9977 33.6367 16.7382C35.0679 16.2112 35.6637 14.8428 35.1411 13.4233C34.6961 12.2147 33.7375 11.8734 32.823 11.5638C32.3175 11.3988 31.8315 11.2427 31.4303 10.9435C31.1002 10.706 30.7954 10.4272 30.5269 10.159C29.6158 9.26567 28.8347 8.39624 27.4035 8.92323C25.9651 9.45284 25.9415 10.6186 25.8247 11.8824C25.7897 12.2704 25.743 12.6706 25.6504 13.0558C25.5318 13.5463 25.2611 13.9971 24.9904 14.4478C24.4951 15.2766 23.9894 16.165 24.4318 17.3666Z" fill="#2F4F44"/>
</g>
<defs>
<clipPath id="clip0_351_7883">
<rect width="16.2457" height="15.3431" fill="white" transform="translate(0.737793 35.2847) rotate(-70.6523)"/>
</clipPath>
<clipPath id="clip1_351_7883">
<rect width="16.2457" height="15.3431" fill="white" transform="translate(17.8945 6.20044) rotate(-20.2142)"/>
</clipPath>
</defs>
</svg>
